<svg xmlns="http://www.w3.org/2000/svg" xmlns:xlink="http://www.w3.org/1999/xlink" viewBox="0 0 220.3 18.3"><defs><style>.cls-1{fill:url(#Silver_2);}</style><linearGradient id="Silver_2" y1="9.15" x2="220.3" y2="9.15" gradientUnits="userSpaceOnUse"><stop offset="0" stop-color="#e5e3e1"/><stop offset="0" stop-color="#dddad9"/><stop offset="0.07" stop-color="#cecbcc"/><stop offset="0.19" stop-color="#a7a4ab"/><stop offset="0.26" stop-color="#8f8c96"/><stop offset="0.52" stop-color="#f3f2f2"/><stop offset="0.59" stop-color="#e4e3e4"/><stop offset="0.71" stop-color="#bebcc0"/><stop offset="0.88" stop-color="#838189"/><stop offset="1" stop-color="#ced1d3"/><stop offset="1" stop-color="#a6abb0"/></linearGradient></defs><title>Ресурс 3</title><g id="Слой_2" data-name="Слой 2"><g id="work"><path class="cls-1" d="M11.28,18.05,10.06,15H3.19L2,18.05H0L5.57,4.24H7.7l5.55,13.81ZM6.62,6,3.7,13.46H9.56ZM26.77,18.05l-3.5-5.49H20.5v5.49H18.78V4.24h5.55A4,4,0,0,1,28.67,8.4a3.83,3.83,0,0,1-3.6,4l3.73,5.63Zm.12-9.65a2.57,2.57,0,0,0-2.77-2.63H20.5v5.28h3.62A2.6,2.6,0,0,0,26.89,8.4Zm20,9.65V6.44L42.24,18.05h-.71L36.83,6.44V18.05H35.11V4.24h2.47l4.3,10.64L46.17,4.24h2.46V18.05Zm18.53,0L64.22,15H57.35l-1.22,3.09h-2L59.73,4.24h2.13l5.55,13.81ZM60.79,6l-2.92,7.45h5.86ZM82.71,18.05,74.66,7v11H72.94V4.24H74.7L82.65,15V4.24h1.72V18.05Zm8.62,0V4.24H96a6.71,6.71,0,0,1,7.08,6.91A6.68,6.68,0,0,1,96,18.05Zm10-6.89A5,5,0,0,0,96,5.78H93V16.52h3A5.08,5.08,0,0,0,101.35,11.16Zm17.06,6.89V4.24h1.72V16.52h6.42v1.53ZM132,12.69V4.24h1.74v8.4c0,2.53,1.35,4.12,3.89,4.12s3.91-1.59,3.91-4.12V4.24h1.74v8.42c0,3.44-1.9,5.63-5.65,5.63S132,16.08,132,12.69Zm30,5.36V6.44l-4.68,11.61h-.7L152,6.44V18.05h-1.72V4.24h2.46L157,14.88l4.29-10.64h2.46V18.05Zm8.68,0V4.24h1.72V18.05Zm8.67,0V4.24h9V5.78h-7.33v4.45h7.18v1.53h-7.18v4.76h7.33v1.53ZM184.13,3l-3.5-3h1.61l3.06,3Zm18.78,15.07-3.5-5.49h-2.77v5.49h-1.72V4.24h5.55a4,4,0,0,1,4.35,4.16,3.83,3.83,0,0,1-3.6,4l3.73,5.63ZM203,8.4a2.57,2.57,0,0,0-2.77-2.63h-3.62v5.28h3.62A2.6,2.6,0,0,0,203,8.4Zm8.22,9.65V4.24h9V5.78H213v4.45h7.18v1.53H213v4.76h7.33v1.53Z"/></g></g></svg>
