<svg id="Layer_1" data-name="Layer 1" xmlns="http://www.w3.org/2000/svg" viewBox="0 0 1063.76 1063.76"><defs><style>.cls-1,.cls-2,.cls-3{fill:none;stroke:#fff;stroke-width:3.6px;}.cls-1{stroke-miterlimit:10;}.cls-2{stroke-linejoin:round;}</style></defs><title>LUMIUM_fragrance-diagramm_white_no-glow</title><g id="g7390"><g id="circle_lines" data-name="circle lines"><g id="path5561"><line class="cls-1" x1="623.37" y1="875.05" x2="669.39" y2="1043.35"/></g><g id="path6448"><line class="cls-1" x1="782.7" y1="783.33" x2="906.7" y2="906.07"/></g><g id="path6450"><line class="cls-1" x1="874.82" y1="624.23" x2="1043.58" y2="668.53"/></g><g id="path6452"><line class="cls-1" x1="875.05" y1="440.38" x2="1043.35" y2="394.37"/></g><g id="path6454"><line class="cls-1" x1="783.33" y1="281.06" x2="906.07" y2="157.06"/></g><g id="path6456"><line class="cls-1" x1="624.23" y1="188.94" x2="668.53" y2="20.18"/></g><g id="path6458"><line class="cls-1" x1="440.39" y1="188.71" x2="394.37" y2="20.41"/></g><g id="path6460"><line class="cls-1" x1="281.06" y1="280.43" x2="157.06" y2="157.69"/></g><g id="path6462"><line class="cls-1" x1="188.94" y1="439.53" x2="20.18" y2="395.23"/></g><g id="path6464"><line class="cls-1" x1="188.71" y1="623.37" x2="20.41" y2="669.38"/></g><g id="path6466"><line class="cls-1" x1="280.43" y1="782.7" x2="157.69" y2="906.7"/></g><g id="path6468"><line class="cls-1" x1="439.53" y1="874.82" x2="395.23" y2="1043.58"/></g></g><g id="line"><line class="cls-1" x1="531.73" y1="531.73" x2="531.73" y2="707.83"/></g><g id="line-2" data-name="line"><line class="cls-1" x1="531.71" y1="532.02" x2="684.22" y2="443.96"/></g><g id="line-3" data-name="line"><line class="cls-1" x1="531.97" y1="531.89" x2="379.46" y2="443.83"/></g><path id="trianlge" class="cls-2" d="M1122.05,2266.69L1428.27,1737l306.6,529.49-612.82.22h0Z" transform="translate(-896.52 -1558.14)"/><path id="hexagon" class="cls-2" d="M1121.29,2267.32V1912.71l307.1-177.31,307.1,177.31v354.61l-307.1,177.31-307.1-177.31h0Z" transform="translate(-896.52 -1558.14)"/><g id="circles"><circle class="cls-3" cx="1428.4" cy="2090.02" r="355.21" transform="translate(-1635.55 -776.08) rotate(-24.54)"/><circle class="cls-3" cx="1428.4" cy="2090.02" r="529.95" transform="translate(-1635.55 -776.08) rotate(-24.54)"/></g></g></svg>
