<svg id="Layer_1" data-name="Layer 1" xmlns="http://www.w3.org/2000/svg" viewBox="0 0 76.15 76.14"><defs><style>.cls-1{fill:#fff;}</style></defs><title>ARMAND_LUMIERE_logo</title><path class="cls-1" d="M181.53,433.5a38.07,38.07,0,1,1,38.07-38.07A38.12,38.12,0,0,1,181.53,433.5Zm0-72.15a34.08,34.08,0,1,0,34.08,34.08A34.12,34.12,0,0,0,181.53,361.35Zm-22.74,49.23,8.64-15h-7.13v-3.71h9.27l12-20.72,12,20.72h9.27v3.71h-7.14l8.64,15H158.79ZM198,406.94l-6.54-11.33H171.62l-6.54,11.33H198Zm-8.68-15-7.77-13.45-7.77,13.45H189.3Z" transform="translate(-143.45 -357.35)"/></svg>
