<svg xmlns="http://www.w3.org/2000/svg" xmlns:xlink="http://www.w3.org/1999/xlink" viewBox="0 0 56.87 10"><defs><style>.cls-1{fill:url(#Silver);}</style><linearGradient id="Silver" y1="5" x2="56.87" y2="5" gradientUnits="userSpaceOnUse"><stop offset="0" stop-color="#ebe9e6"/><stop offset="0" stop-color="#e4e1de"/><stop offset="0.06" stop-color="#d5d2d1"/><stop offset="0.19" stop-color="#afabae"/><stop offset="0.26" stop-color="#959196"/><stop offset="0.52" stop-color="#f7f7f7"/><stop offset="0.59" stop-color="#e9e8e9"/><stop offset="0.71" stop-color="#c4c1c3"/><stop offset="0.88" stop-color="#8a8487"/><stop offset="1" stop-color="#d8d8d8"/><stop offset="1" stop-color="#b0b1b2"/></linearGradient></defs><title>Ресурс 1</title><g id="Слой_2" data-name="Слой 2"><g id="top_menu" data-name="top menu"><path class="cls-1" d="M6.56,7.71V9.83H.43v-8C.38.29,0,0,0,0H2.75s-.38.29-.43,1.78V8.14H4.78C6.27,8.09,6.56,7.71,6.56,7.71ZM16.49,0h-1.9V5.87A2.17,2.17,0,0,1,12.23,8.3,2.18,2.18,0,0,1,9.87,5.87V0H7.53S7.91.29,8,1.78V5.93C8,8.52,9.52,10,12.23,10s4.26-1.49,4.26-4.08V1.78C16.55.29,16.92,0,16.92,0ZM56.44,8V1.78C56.49.29,56.87,0,56.87,0h-3L51.33,6.17,48.79,0h-3s.38.29.43,1.78V8c-.05,1.49-.43,1.78-.43,1.78h2.32V3.09L50.9,9.83h.86l2.79-6.74V9.83h2.32S56.49,9.54,56.44,8ZM44,0h-1.9V5.87a2.36,2.36,0,1,1-4.72,0V0H35s.38.29.43,1.78V5.93C35.43,8.52,37,10,39.7,10S44,8.51,44,5.92V1.78C44,.29,44.39,0,44.39,0ZM33.15,8V1.78C33.2.29,33.58,0,33.58,0H30.83s.38.29.43,1.78V8c-.05,1.49-.43,1.78-.43,1.78h2.75S33.2,9.54,33.15,8ZM29,8V1.78C29,.29,29.41,0,29.41,0h-3L23.87,6.17,21.32,0h-3s.38.29.43,1.78V8c-.05,1.49-.43,1.78-.43,1.78h2.32V3.09l2.78,6.73h.86l2.79-6.74V9.83h2.32S29,9.54,29,8Z"/></g></g></svg>
