<svg xmlns="http://www.w3.org/2000/svg" viewBox="0 0 163.96 45.55">
  <defs>
    <style>
      .cls-1 {
        fill: #b1b3b4;
      }
    </style>
  </defs>
  <g id="Слой_2" data-name="Слой 2">
    <g id="work">
      <path class="cls-1" d="M102.18,45.55S101.28,45,99.8,44,81.29,28.31,79.41,26.49C77.53,28.31,60.51,43,59,44s-2.39,1.53-2.39,1.53.52-.9,1.53-2.39,15.7-18.51,17.53-20.38C73.87,20.9,59.16,3.88,58.16,2.39S56.64,0,56.64,0s.9.52,2.39,1.52,18.51,15.7,20.38,17.53C81.29,17.23,98.3,2.52,99.79,1.52S102.18,0,102.18,0s-.52.9-1.52,2.39S85,20.9,83.13,22.77C85,24.65,99.66,41.67,100.66,43.16S102.18,45.55,102.18,45.55ZM22.43,32.34v-1.9a.58.58,0,0,0-.58-.58H8.54A3.56,3.56,0,0,1,5,26.3V13.74a.58.58,0,0,0-.58-.58H.58a.58.58,0,0,0-.58.58v14.6a4.58,4.58,0,0,0,4.58,4.58H21.85A.58.58,0,0,0,22.43,32.34Zm33.23-18.6a.58.58,0,0,0-.58-.58H51.34a.58.58,0,0,0-.58.58v12a3.91,3.91,0,0,1-1,3.08c-1.12,1-3.24,1.44-7.08,1.44h-1c-3.84,0-6-.41-7.08-1.44a3.91,3.91,0,0,1-1-3.08v-12a.58.58,0,0,0-.58-.58H29.21a.58.58,0,0,0-.58.58V25.11c0,2.83.63,4.38,2.12,5.66,1.91,1.63,5.14,2.48,10.7,2.48h1.39c5.55,0,8.79-.84,10.7-2.48,1.5-1.28,2.12-2.83,2.12-5.66Zm102.59,19a.62.62,0,0,0,.42.16h4.86a.44.44,0,0,0,.3-.77l-3-2.77a11.52,11.52,0,0,0-2.63-2,.23.23,0,0,1,.05-.44,6.74,6.74,0,0,0,3.31-1.61,6.77,6.77,0,0,0,1.85-5.14,6.77,6.77,0,0,0-1.85-5.14c-1.39-1.28-3.48-1.93-6.83-1.93H137.9a.76.76,0,0,0-.76.76V32.3a.62.62,0,0,0,.62.62h3.74a.62.62,0,0,0,.62-.62V27.82a.48.48,0,0,1,.48-.48h6.73c2.42,0,3.29.33,5.34,2.18Zm.07-11.67a3.26,3.26,0,0,1-.71,2.34c-.6.63-1.58.84-3.4.84H142.58a.46.46,0,0,1-.46-.46V16.66a.44.44,0,0,1,.44-.44H154.2c1.82,0,2.8.22,3.4.84a3.18,3.18,0,0,1,.71,2.31Zm-28,11.17a.42.42,0,0,1-.35.66h-4.12a.52.52,0,0,1-.44-.24l-2-3.23a.27.27,0,0,0-.23-.12h-16a.27.27,0,0,0-.23.13l-2,3.23a.52.52,0,0,1-.44.24h-4.17a.4.4,0,0,1-.33-.62l12.92-18.92a.52.52,0,0,1,.43-.23H117a.52.52,0,0,1,.43.23Zm-9.48-6a.3.3,0,0,0,.25-.46l-5.62-8.94a.39.39,0,0,0-.65,0l-5.62,9a.29.29,0,0,0,.25.45h11.39Z"/>
    </g>
  </g>
</svg>
