<svg xmlns="http://www.w3.org/2000/svg" xmlns:xlink="http://www.w3.org/1999/xlink" viewBox="0 0 645.96 645.96">
    <defs>
        <style>
            .cls-1 {
                fill: url(#radial-gradient);
            }

        </style>
        <radialGradient id="radial-gradient" cx="322.98" cy="322.98" r="215.38" gradientUnits="userSpaceOnUse">
            <stop offset="0" stop-color="#00ace3" stop-opacity="0" />
            <stop offset="0.25" stop-color="#00a8e1" />
            <stop offset="0.75" stop-color="#00a8e1" stop-opacity="0.25" />
            <stop offset="1" stop-color="#00a8e1" stop-opacity="0" />
        </radialGradient>
    </defs>
    <title>Ресурс 5</title>
    <g id="Слой_2" data-name="Слой 2">
        <g id="work">
            <path class="cls-1" d="M323,378a54.79,54.79,0,1,1,54.79-54.79A54.86,54.86,0,0,1,323,378Zm0-108.62a53.83,53.83,0,1,0,53.83,53.83A53.89,53.89,0,0,0,323,269.43Z" />
            <path class="cls-1" d="M323,386.42a63.18,63.18,0,1,1,63.18-63.17A63.25,63.25,0,0,1,323,386.42ZM323,261a62.22,62.22,0,1,0,62.22,62.22A62.29,62.29,0,0,0,323,261Z" />
            <path class="cls-1" d="M323,394.79a71.56,71.56,0,1,1,71.56-71.56A71.64,71.64,0,0,1,323,394.79Zm0-142.17a70.61,70.61,0,1,0,70.61,70.61A70.69,70.69,0,0,0,323,252.62Z" />
            <path class="cls-1" d="M323,403.17a79.94,79.94,0,1,1,79.94-79.94A80,80,0,0,1,323,403.17Zm0-158.94a79,79,0,1,0,79,79A79.1,79.1,0,0,0,323,244.22Z" />
            <path class="cls-1" d="M323,411.54a88.32,88.32,0,1,1,88.32-88.32A88.42,88.42,0,0,1,323,411.54Zm0-175.72a87.4,87.4,0,1,0,87.4,87.4A87.5,87.5,0,0,0,323,235.82Z" />
            <path class="cls-1" d="M323,419.91a96.7,96.7,0,1,1,96.7-96.7A96.81,96.81,0,0,1,323,419.91Zm0-192.49a95.79,95.79,0,1,0,95.79,95.79A95.9,95.9,0,0,0,323,227.42Z" />
            <path class="cls-1" d="M323,428.28A105.08,105.08,0,1,1,428.06,323.2,105.2,105.2,0,0,1,323,428.28ZM323,219A104.18,104.18,0,1,0,427.16,323.2,104.3,104.3,0,0,0,323,219Z" />
            <path class="cls-1" d="M323,436.66A113.46,113.46,0,1,1,436.44,323.2,113.59,113.59,0,0,1,323,436.66Zm0-226A112.58,112.58,0,1,0,435.56,323.2,112.7,112.7,0,0,0,323,210.62Z" />
            <path class="cls-1" d="M323,445A121.84,121.84,0,1,1,444.82,323.19,122,122,0,0,1,323,445Zm0-242.81a121,121,0,1,0,121,121A121.1,121.1,0,0,0,323,202.22Z" />
            <path class="cls-1" d="M323,453.4a130.22,130.22,0,1,1,92.08-38.14A129.37,129.37,0,0,1,323,453.4Zm0-259.58A129.36,129.36,0,1,0,452.34,323.18,129.51,129.51,0,0,0,323,193.82Z" />
            <path class="cls-1" d="M323,461.77a138.6,138.6,0,1,1,98-40.6A137.7,137.7,0,0,1,323,461.77Zm0-276.35c-76,0-137.75,61.8-137.75,137.75S247,460.92,323,460.92s137.75-61.8,137.75-137.75S398.94,185.42,323,185.42Z" />
            <path class="cls-1" d="M323,470.14a147,147,0,1,1,103.93-43.05A146,146,0,0,1,323,470.14ZM323,177c-80.58,0-146.14,65.56-146.14,146.14S242.4,469.31,323,469.31s146.14-65.56,146.14-146.14S403.57,177,323,177Z" />
            <path class="cls-1" d="M323,478.52A155.36,155.36,0,1,1,432.84,433,154.35,154.35,0,0,1,323,478.52Zm0-309.9c-85.21,0-154.54,69.32-154.54,154.54S237.77,477.69,323,477.69s154.54-69.32,154.54-154.54S408.19,168.62,323,168.62Z" />
            <path class="cls-1" d="M323,486.89a163.75,163.75,0,1,1,115.79-48A162.67,162.67,0,0,1,323,486.89Zm0-326.67c-89.84,0-162.93,73.09-162.93,162.93S233.14,486.07,323,486.07,485.91,413,485.91,323.14,412.82,160.22,323,160.22Z" />
            <path class="cls-1" d="M323,495.26a172.13,172.13,0,1,1,121.71-50.41A171,171,0,0,1,323,495.26Zm0-343.45c-94.47,0-171.32,76.85-171.32,171.32S228.51,494.46,323,494.46,494.3,417.6,494.3,323.14,417.45,151.81,323,151.81Z" />
            <path class="cls-1" d="M323,503.63a180.51,180.51,0,1,1,127.64-52.87A179.33,179.33,0,0,1,323,503.63Zm0-360.22c-99.09,0-179.71,80.62-179.71,179.71S223.89,502.84,323,502.84s179.71-80.62,179.71-179.71S422.08,143.41,323,143.41Z" />
            <path class="cls-1" d="M323,512a188.89,188.89,0,1,1,133.56-55.32A187.65,187.65,0,0,1,323,512Zm0-377c-103.72,0-188.11,84.38-188.11,188.11S219.26,511.22,323,511.22s188.11-84.38,188.11-188.11S426.7,135,323,135Z" />
            <path class="cls-1" d="M323,520.38A197.27,197.27,0,1,1,462.47,462.6,196,196,0,0,1,323,520.38Zm0-393.77c-108.35,0-196.5,88.15-196.5,196.5s88.15,196.5,196.5,196.5,196.5-88.15,196.5-196.5S431.33,126.61,323,126.61Z" />
            <path class="cls-1" d="M323,528.75A205.65,205.65,0,1,1,468.4,468.52,204.3,204.3,0,0,1,323,528.75Zm0-410.54c-113,0-204.89,91.91-204.89,204.89S210,528,323,528,527.87,436.08,527.87,323.1,436,118.21,323,118.21Z" />
            <path class="cls-1" d="M323,537.12a213.36,213.36,0,1,1,83.31-16.82A212.69,212.69,0,0,1,323,537.12Zm0-427.31c-117.6,0-213.28,95.68-213.28,213.28S205.38,536.37,323,536.37,536.26,440.7,536.26,323.09,440.59,109.81,323,109.81Z" />
            <path class="cls-1" d="M323,545.5A221.72,221.72,0,1,1,409.55,528,221,221,0,0,1,323,545.5Zm0-444.09c-122.23,0-221.67,99.44-221.67,221.67S200.75,544.76,323,544.76s221.67-99.44,221.67-221.67S445.21,101.41,323,101.41Z" />
            <path class="cls-1" d="M323,553.87a230.07,230.07,0,1,1,89.83-18.14A229.35,229.35,0,0,1,323,553.87ZM323,93C196.12,93,92.91,196.22,92.91,323.08S196.12,553.14,323,553.14,553,449.93,553,323.08,449.84,93,323,93Z" />
            <path class="cls-1" d="M323,562.24a238.43,238.43,0,1,1,93.1-18.8A237.67,237.67,0,0,1,323,562.24Zm0-477.63c-131.49,0-238.46,107-238.46,238.46S191.49,561.53,323,561.53s238.46-107,238.46-238.46S454.47,84.61,323,84.61Z" />
            <path class="cls-1" d="M323,570.61a246.78,246.78,0,1,1,96.36-19.45A246,246,0,0,1,323,570.61Zm0-494.41c-136.11,0-246.85,110.74-246.85,246.85S186.87,569.91,323,569.91,569.83,459.17,569.83,323.06,459.1,76.21,323,76.21Z" />
            <path class="cls-1" d="M323,579a255.14,255.14,0,1,1,99.62-20.11A254.33,254.33,0,0,1,323,579Zm0-511.18c-140.74,0-255.24,114.5-255.24,255.24S182.24,578.29,323,578.29s255.24-114.5,255.24-255.24S463.72,67.81,323,67.81Z" />
            <path class="cls-1" d="M323,587.36A264.39,264.39,0,0,1,220.1,79.5,264.38,264.38,0,0,1,425.86,566.59,262.66,262.66,0,0,1,323,587.36Zm0-528C177.61,59.41,59.35,177.67,59.35,323S177.61,586.68,323,586.68,586.62,468.41,586.62,323,468.35,59.41,323,59.41Z" />
            <path class="cls-1" d="M323,595.73a272.77,272.77,0,0,1-106.15-524A272.77,272.77,0,0,1,429.13,574.3,271,271,0,0,1,323,595.73ZM323,51C173,51,51,173,51,323s122,272,272,272S595,473,595,323,473,51,323,51Z" />
            <path class="cls-1" d="M323,604.1A281.15,281.15,0,0,1,213.57,64,281.15,281.15,0,0,1,432.39,582,279.32,279.32,0,0,1,323,604.1Zm0-561.5C168.36,42.6,42.56,168.4,42.56,323S168.36,603.44,323,603.44,603.4,477.65,603.4,323,477.61,42.6,323,42.6Z" />
            <path class="cls-1" d="M323,612.47A289.53,289.53,0,0,1,210.31,56.3,289.53,289.53,0,0,1,435.65,589.73,287.64,287.64,0,0,1,323,612.47ZM323,34.2C163.73,34.2,34.17,163.76,34.17,323S163.73,611.83,323,611.83,611.79,482.27,611.79,323,482.23,34.2,323,34.2Z" />
            <path class="cls-1" d="M323,620.85A297.92,297.92,0,0,1,207,48.57,297.92,297.92,0,0,1,438.91,597.44,296,296,0,0,1,323,620.85Zm0-595C159.1,25.8,25.78,159.13,25.78,323S159.1,620.21,323,620.21,620.19,486.89,620.19,323,486.86,25.8,323,25.8Z" />
            <path class="cls-1" d="M323,629.22A306.3,306.3,0,0,1,203.79,40.84,306.3,306.3,0,0,1,442.18,605.15,304.3,304.3,0,0,1,323,629.22ZM323,17.4C154.47,17.4,17.38,154.49,17.38,323S154.47,628.6,323,628.6,628.58,491.51,628.58,323,491.49,17.4,323,17.4Z" />
            <path class="cls-1" d="M323,637.59A314.68,314.68,0,0,1,200.52,33.11,314.68,314.68,0,0,1,445.44,612.87,312.63,312.63,0,0,1,323,637.59ZM323,9C149.85,9,9,149.86,9,323S149.85,637,323,637,637,496.12,637,323,496.12,9,323,9Z" />
            <path class="cls-1" d="M323,646A323.07,323.07,0,0,1,197.26,25.38,323.06,323.06,0,0,1,448.7,620.58,321,321,0,0,1,323,646ZM323,.6C145.22.6.6,145.22.6,323S145.22,645.36,323,645.36,645.36,500.74,645.36,323,500.74.6,323,.6Z" />
        </g>
    </g>
</svg>
